<?xml version="1.0" encoding="utf-8"?>
<!-- Generator: Adobe Illustrator 19.2.1, SVG Export Plug-In . SVG Version: 6.00 Build 0)  -->
<svg version="1.1" id="Ebene_1" xmlns="http://www.w3.org/2000/svg" xmlns:xlink="http://www.w3.org/1999/xlink" x="0px" y="0px"
	 viewBox="0 0 96 96" style="enable-background:new 0 0 96 96;" xml:space="preserve">
<style type="text/css">
	.st0{fill:#55B387;}
</style>
<path class="st0" d="M48,0C21.5,0,0,21.5,0,48s21.5,48,48,48s48-21.5,48-48S74.5,0,48,0z M66,24c5.5,0,10,4.5,10,10c0,1.1-0.9,2-2,2
	s-2-0.9-2-2c0-3.3-2.7-6-6-6s-6,2.7-6,6c0,1.1-0.9,2-2,2s-2-0.9-2-2C56,28.5,60.5,24,66,24z M30,24c5.5,0,10,4.5,10,10
	c0,1.1-0.9,2-2,2s-2-0.9-2-2c0-3.3-2.7-6-6-6s-6,2.7-6,6c0,1.1-0.9,2-2,2s-2-0.9-2-2C20,28.5,24.5,24,30,24z M48,84
	c-19.8,0-36-16.2-36-36c0-1.1,0.9-2,2-2s2,0.9,2,2c0,17.6,14.4,32,32,32s32-14.4,32-32c0-1.1,0.9-2,2-2s2,0.9,2,2
	C84,67.8,67.8,84,48,84z"/>
</svg>
