<svg id="Ebene_1" data-name="Ebene 1" xmlns="http://www.w3.org/2000/svg" xmlns:xlink="http://www.w3.org/1999/xlink" viewBox="0 0 500 383.45"><defs><style>.cls-1,.cls-2,.cls-3{fill:none;}.cls-1,.cls-2,.cls-3,.cls-5{stroke:#0091ea;stroke-miterlimit:10;}.cls-1,.cls-5{stroke-width:8.69px;}.cls-2{stroke-width:8.69px;}.cls-3{stroke-width:9px;}.cls-4,.cls-5{fill:#0091ea;}.cls-6{clip-path:url(#clip-path);}</style><clipPath id="clip-path"><rect class="cls-1" x="126.95" y="264.46" width="246.01" height="72.41" rx="36.21" ry="36.21"/></clipPath></defs><title>taskomat-logo</title><rect class="cls-2" x="17.99" y="142.35" width="27.11" height="97.27" rx="4.08" ry="4.08"/><rect class="cls-2" x="454.81" y="142.35" width="27.11" height="97.27" rx="4.08" ry="4.08"/><rect class="cls-2" x="481.92" y="165.62" width="13.56" height="46.59" rx="2" ry="2"/><rect class="cls-2" x="4.44" y="165.62" width="13.56" height="46.59" rx="2" ry="2"/><rect class="cls-1" x="45.11" y="49.79" width="409.7" height="328.98" rx="42.47" ry="42.47"/><path class="cls-3" d="M323.41,49.7C309.83,23.7,282.05,4.52,250,4.52S190.08,23.7,176.51,49.7h146.9Z"/><path class="cls-4" d="M150.81,118.81a48.93,48.93,0,1,1-48.93,48.93,48.93,48.93,0,0,1,48.93-48.93m0-8.69a57.61,57.61,0,1,0,57.61,57.61,57.68,57.68,0,0,0-57.61-57.61h0Z"/><circle class="cls-5" cx="150.81" cy="167.74" r="16.51"/><path class="cls-4" d="M352.08,118.81a48.93,48.93,0,1,1-48.93,48.93,48.93,48.93,0,0,1,48.93-48.93m0-8.69a57.61,57.61,0,1,0,57.61,57.61,57.68,57.68,0,0,0-57.61-57.61h0Z"/><circle class="cls-5" cx="352.08" cy="167.74" r="16.51"/><g class="cls-6"><line class="cls-1" x1="347.29" y1="386.64" x2="347.29" y2="195.16"/><line class="cls-1" x1="319.32" y1="386.64" x2="319.32" y2="195.16"/><line class="cls-1" x1="291.35" y1="386.64" x2="291.35" y2="195.16"/><line class="cls-1" x1="263.38" y1="386.64" x2="263.38" y2="195.16"/><line class="cls-1" x1="235.42" y1="386.64" x2="235.42" y2="195.16"/><line class="cls-1" x1="207.45" y1="386.64" x2="207.45" y2="195.16"/><line class="cls-1" x1="179.48" y1="386.64" x2="179.48" y2="195.16"/><line class="cls-1" x1="151.51" y1="386.64" x2="151.51" y2="195.16"/><line class="cls-1" x1="55.87" y1="300.66" x2="421.67" y2="300.66"/></g><rect class="cls-1" x="126.95" y="264.46" width="246.01" height="72.41" rx="36.21" ry="36.21"/></svg>